PathFileType	4	(X/Y/Z)	58_1_11_p1_0-378.trc
DataRate	CameraRate	NumFrames	NumMarkers	Units	OrigDataRate	OrigDataStartFrame	OrigNumFrames
39.0	39.0	6	27	m	39.0	0	379
Frame#	Time	RHip			RKnee			RAnkle			RBigToe			RSmallToe			RHeel			LHip			LKnee			LAnkle			LBigToe			LSmallToe			LHeel			Neck			Head			Nose			RShoulder			RElbow			RWrist			RThumb			RIndex			RPinky			LShoulder			LElbow			LWrist			LThumb			LIndex			LPinky			
		X1	Y1	Z1	X2	Y2	Z2	X3	Y3	Z3	X4	Y4	Z4	X5	Y5	Z5	X6	Y6	Z6	X7	Y7	Z7	X8	Y8	Z8	X9	Y9	Z9	X10	Y10	Z10	X11	Y11	Z11	X12	Y12	Z12	X13	Y13	Z13	X14	Y14	Z14	X15	Y15	Z15	X16	Y16	Z16	X17	Y17	Z17	X18	Y18	Z18	X19	Y19	Z19	X20	Y20	Z20	X21	Y21	Z21	X22	Y22	Z22	X23	Y23	Z23	X24	Y24	Z24	X25	Y25	Z25	X26	Y26	Z26	X27	Y27	Z27	
0	0.0	0.33688299567766955	0.5115232325188015	0.9909316097323607	0.3349256490295778	0.6210375334531933	1.4661556063454828	0.3384569657684823	0.7593050937447118	1.8935547223411218	0.28529742019104204	0.5321880411134681	1.9507817434160413	0.35824537104804083	0.55525678131687	1.9350001952394191	0.3036454575283034	0.8584461376825581	1.9522266105459913	0.13398883234613515	0.5221473866650131	1.0034357302899988	0.12725858732868645	0.6483065060460386	1.4671038899340976	0.11367156222250269	0.7307169579336888	1.88060246486208	0.12462807160662119	0.5112288857839878	1.9215991218058097	0.07078436658659586	0.5960830839858873	1.9499529178823705	0.13006965926802808	0.7929331998856796	1.9206309754864346	0.21206188732170383	0.42032774742638107	0.42465485217615384	0.2271538406410181	0.3053741679962987	0.19216980799815098	0.21311499065848877	0.2576070463145606	0.349573169346935	0.35873926629127323	0.39486774822858445	0.5062837192780799	0.4050815860667728	0.4405096927025431	0.7835695519451464	0.29183850580695697	0.3406550655843115	1.0139696448820152	0.2004869026289168	0.35326643018690523	1.0961598614976513	0.19233022763993696	0.37945970229941955	1.112843570132715	0.20401927174919654	0.38339945353945104	1.1129933191770232	0.06641986211078035	0.4094887009308691	0.5116165499664235	0.05802943095312615	0.432081714215463	0.7856178130921174	0.12081626416469539	0.35902970141292984	1.0047157358603163	0.20471051905630253	0.33825244430041235	1.0774546508302536	0.20124570469516512	0.33842290818455245	1.0982071843043963	0.19074316928578802	0.3676891504959033	1.116603037910337
1	0.02564102564102564	0.33657511489634556	0.5078123750780962	0.9825358739820279	0.33462654114826035	0.6213034052690904	1.4659657555983459	0.3385511247261828	0.7591662017156711	1.89343011377422	0.28896731250377256	0.5448468437659151	1.95253563602917	0.3592449474760127	0.5582580691637657	1.9361119523032442	0.3030534682159426	0.8602461503775798	1.958909726337136	0.13411466034095348	0.5179476385258602	0.9951196202131486	0.12714138228221541	0.6476041077539648	1.4668302858135776	0.11807345055745536	0.7326794016565437	1.881725363209035	0.12755463422352162	0.5254524340676521	1.9279917446344808	0.07054310314977154	0.5973974455497157	1.9502523222316606	0.13465603181942903	0.8099877340114574	1.9290395856615052	0.21210996899624449	0.42028918771975277	0.42464539837556575	0.22723839350105868	0.30512807913695367	0.1923401567309496	0.21625549117185267	0.26814824112583807	0.348518784195692	0.3586435518779007	0.39491817112309113	0.5062782774945797	0.4053474838644688	0.43907165593725667	0.7800771263517997	0.29191380114503346	0.34031914265339064	1.0137695580239001	0.2046736994759185	0.3518270585191484	1.095391001206096	0.19777657511873303	0.3672708781511358	1.1113750016684436	0.20497532432340507	0.38108835830158805	1.1087934443568361	0.06645614511994476	0.40978501211793933	0.5116088464050293	0.0578681165720967	0.4323637060439876	0.7855346102900514	0.12091093678439922	0.35876760619260495	1.0049038544449196	0.2046039698230411	0.3386056424385031	1.0751459542811814	0.19777362453569117	0.32656579799745433	1.0968589840084677	0.1906528409104449	0.36777440670624484	1.1166320667854197
2	0.05128205128205128	0.3366211809542455	0.5080548151185174	0.9826270687104297	0.3377960279759758	0.6319835787815337	1.464808383600404	0.33882470970124284	0.7570765290394864	1.8972690233630503	0.28960652240000284	0.5457327778491369	1.9568829522385682	0.36239018460947653	0.5704805851337689	1.94106895593881	0.29875761562973535	0.8583546370479752	1.9584542110804257	0.1341020591370766	0.5181709327706	0.9952314956038918	0.1271882361190322	0.6477979098236086	1.4669044050024043	0.11840514791310346	0.7326751966782382	1.8822036720098592	0.12849108216664576	0.5278919656405813	1.9330098751072855	0.07065504409744133	0.5966248323509574	1.949896771440962	0.13709823708338933	0.8001432617411255	1.9298862646666703	0.2121330874811877	0.42022375890996605	0.4246708988607195	0.227218050987108	0.30509373806507384	0.19229877203066673	0.2163264364618006	0.26812973366092113	0.34854149088261577	0.35867494019975715	0.3947986893245151	0.5062945588192843	0.40537836298841917	0.43892359480724175	0.780109953509665	0.29192287320250054	0.34036643148713586	1.0138110338868618	0.20518047385318644	0.35090701752093423	1.0925445971207446	0.19779328977178323	0.36730998404805076	1.1113290326734075	0.20490018643958702	0.3812567915885838	1.108872513529455	0.06642892586899284	0.40966036469559053	0.5116312762854326	0.05805041313167689	0.43150858449961665	0.7891839745673613	0.12474209563121261	0.35998254675159413	1.0049387544879915	0.2045609215281871	0.3387605879147911	1.0751620863524607	0.20125516079472833	0.3381547103629372	1.0985674938371284	0.19063217910137673	0.36785515694536125	1.116641179034899
3	0.07692307692307693	0.33659843664784717	0.5078809192729932	0.9826311170558175	0.3387323550865135	0.6346535299594653	1.4695508268050586	0.338826933636246	0.7570098673855016	1.8974030578247953	0.2930368671292673	0.5592222888750679	1.9589026438338917	0.35914303205346476	0.5607247505698363	1.9364952010901821	0.3030690904789399	0.8607892282242023	1.9592155981401305	0.1340042719677188	0.5180238954242209	0.995274820332145	0.12728846905395058	0.6478228109189742	1.4671259795094647	0.1183578388875321	0.7326931628223097	1.882318217097402	0.12848432105329308	0.5280139828751302	1.9332421070173946	0.07068933184705771	0.5971725948496871	1.950337467814128	0.132460652497368	0.7977180491008597	1.9290719540212837	0.21213471881802337	0.4202447337303715	0.42468775206689696	0.22719822146483018	0.305188887461398	0.19222517301920844	0.21323138588248386	0.2576190719401166	0.3495846700665027	0.35868206457986807	0.39484647709084253	0.506277275563055	0.4053116581012315	0.4386636735584697	0.7800868430014077	0.2952241070594427	0.351211800318384	1.0153261167142147	0.20534104922663068	0.35091967162485477	1.0924086576330272	0.19802566458622892	0.36734181118097814	1.1111056827430636	0.2048557693946214	0.38087905369287306	1.1087225243501477	0.06640595412926384	0.4095956055140494	0.5116214199502208	0.05800382534496458	0.43140575619348187	0.7892269320890641	0.12480193999841589	0.3598399865876912	1.0050552670665553	0.20482929656175275	0.3379472612671384	1.077888918289559	0.2013478759448245	0.33831808534441293	1.0985094847681693	0.19058898669906302	0.36790791199052925	1.1166736585859904
4	0.10256410256410256	0.3366285617640449	0.5079497210212592	0.9825956346034393	0.3377233171998774	0.6316973743776083	1.4647802078326984	0.3387601680751432	0.757254958193952	1.8972983130349812	0.2897052525328733	0.5463583518207245	1.957108486394252	0.3622707078653984	0.5711806608943615	1.9410449961380087	0.30384240283036223	0.8586495694261369	1.9526197520356916	0.13399878200218954	0.5181040888162783	0.9953339774091992	0.12739781546943343	0.6479664163578879	1.4673801707502623	0.11835921469001053	0.7328239615950254	1.8824816789920327	0.12841254392082355	0.5282373552886366	1.9331426798252884	0.07038302384293031	0.5975055245841838	1.9501078455509016	0.1323559311426522	0.7971766234673405	1.9287192661055617	0.21217114240106688	0.4201957676162384	0.4247352556918662	0.22719258150403382	0.3052756111539448	0.1921787732254952	0.2132576708937308	0.2575202023421942	0.3495583214554442	0.3586849737315599	0.3947603306760708	0.5062728218328438	0.40543770047248046	0.4391231875452016	0.7801501977561174	0.2952646206991086	0.3518335303971207	1.015465845649683	0.2052806334242025	0.35137032598923756	1.0924444173615417	0.19785142210556317	0.36786257325784805	1.1114362647710925	0.20470752308531948	0.3815969913856413	1.1091916594525406	0.06638193964811863	0.40940318402862796	0.511618796026021	0.05801761544323516	0.4312565738578582	0.7892195819108884	0.12507816334105423	0.3588810079551852	1.008373133704586	0.20480232230749082	0.3382232367541026	1.0778953271803222	0.20134120468013653	0.33861009792634306	1.0984794617495994	0.19062807151337482	0.3679759215775702	1.1166450858328998
5	0.1282051282051282	0.33665222232017217	0.5079671074463009	0.9826639557669272	0.33359745390218437	0.6184792049408736	1.461316679681243	0.33872142796224075	0.7572385488594824	1.8973948677010928	0.28853208459835217	0.5438111289809785	1.9515820167410376	0.36209848732199906	0.5712984605866599	1.9409086450722475	0.29862759785976467	0.8589642285805998	1.9580481746839251	0.13404626653672558	0.5180992974179305	0.9952936833634717	0.12731864519970537	0.6476653834294896	1.467265510650884	0.11844232355014106	0.7326852855988304	1.8823942198327042	0.12537098457001183	0.5144450260869672	1.9272144572456897	0.07040582659297702	0.5969761503594527	1.9498365415471133	0.13251929982070296	0.7965395690369328	1.9284332507450368	0.21215783533346358	0.42018855821245404	0.42472758386760817	0.22719246788443936	0.30535569556503284	0.19216009045921817	0.21324607419584474	0.2575031675799771	0.3495475144636894	0.3586535098758368	0.3947730550145888	0.5062640540133685	0.4053376186494138	0.4390152017357248	0.7801431194342996	0.29524064674095574	0.3515327822490238	1.0153849999787539	0.20522983123391608	0.35090512031325977	1.0923650547624977	0.19790784115046275	0.36733376209146323	1.1111125411902587	0.2049017696130733	0.38137991408749217	1.1089681554421018	0.0663908878981172	0.4094566440706872	0.5116166656584269	0.05808290309166814	0.431463844302822	0.789192391724193	0.12506090057120148	0.35899922079832547	1.0083351456324208	0.204646048049523	0.33839722404153083	1.077785022599946	0.20118175683257217	0.3385212822151045	1.098484717400719	0.1905540304450893	0.36792224397601375	1.1166375611625114
